<svg fill="none" height="100%" width="100%" viewBox="0 0 1200 1200" xmlns:xlink="http://www.w3.org/1999/xlink" xmlns="http://www.w3.org/2000/svg"><defs><clipPath id="i0"><rect height="1200" width="1200" y="0" x="0" /></clipPath><g id="i1"><g id="i2"><g transform="translate(600,536)"><animateTransform repeatCount="indefinite" type="translate" attributeName="transform" dur="2s" begin="0s" calcMode="spline" values="600 536; 600 603.445; 600 536; 600 619.445; 600 536; 600 616; 600 536" keyTimes="0; 0.158333; 0.333333; 0.5; 0.666667; 0.833333; 1" keySplines="0.33 0 0.67 1; 0.33 0 0.67 1; 0.33 0 0.67 1; 0.33 0 0.67 1; 0.33 0 0.67 1; 0.33 0 0.67 1" fill="freeze" /><g transform="scale(1,1) translate(-500,-500)"><g id="i3"><g transform="translate(574,350)"><g transform="rotate(15)"><animateTransform repeatCount="indefinite" type="rotate" attributeName="transform" dur="2s" begin="0s" calcMode="spline" values="15; 0; 15; 0; 15; 0; 15; 0; 15; 0; 15; 0; 15; 0; 15; 0; 15; 0; 15; 0; 15; 0; 15; 0; 15; 0; 15; 0; 15; 0; 15; 0; 15; 0; 15; 0; 15; 0; 15; 0; 15; 0; 15; 0; 15; 0; 15; 0; 15; 0; 15; 0; 15; 0; 15; 0; 15; 0; 15; 0; 15" keyTimes="0; 0.016667; 0.033333; 0.05; 0.066667; 0.083333; 0.1; 0.116667; 0.133333; 0.15; 0.166667; 0.183333; 0.2; 0.216667; 0.233333; 0.25; 0.266667; 0.283333; 0.3; 0.316667; 0.333333; 0.35; 0.366667; 0.383333; 0.4; 0.416667; 0.433333; 0.45; 0.466667; 0.483333; 0.5; 0.516667; 0.533333; 0.55; 0.566667; 0.583333; 0.6; 0.616667; 0.633333; 0.65; 0.666667; 0.683333; 0.7; 0.716667; 0.733333; 0.75; 0.766667; 0.783333; 0.8; 0.816667; 0.833333; 0.85; 0.866667; 0.883333; 0.9; 0.916667; 0.933333; 0.95; 0.966667; 0.983333; 1" keySplines="0.33 0 0.67 1; 0.33 0 0.67 1; 0.33 0 0.67 1; 0.33 0 0.67 1; 0.33 0 0.67 1; 0.33 0 0.67 1; 0.33 0 0.67 1; 0.33 0 0.67 1; 0.33 0 0.67 1; 0.33 0 0.67 1; 0.33 0 0.67 1; 0.33 0 0.67 1; 0.33 0 0.67 1; 0.33 0 0.67 1; 0.33 0 0.67 1; 0.33 0 0.67 1; 0.33 0 0.67 1; 0.33 0 0.67 1; 0.33 0 0.67 1; 0.33 0 0.67 1; 0.33 0 0.67 1; 0.33 0 0.67 1; 0.33 0 0.67 1; 0.33 0 0.67 1; 0.33 0 0.67 1; 0.33 0 0.67 1; 0.33 0 0.67 1; 0.33 0 0.67 1; 0.33 0 0.67 1; 0.33 0 0.67 1; 0.33 0 0.67 1; 0.33 0 0.67 1; 0.33 0 0.67 1; 0.33 0 0.67 1; 0.33 0 0.67 1; 0.33 0 0.67 1; 0.33 0 0.67 1; 0.33 0 0.67 1; 0.33 0 0.67 1; 0.33 0 0.67 1; 0.33 0 0.67 1; 0.33 0 0.67 1; 0.33 0 0.67 1; 0.33 0 0.67 1; 0.33 0 0.67 1; 0.33 0 0.67 1; 0.33 0 0.67 1; 0.33 0 0.67 1; 0.33 0 0.67 1; 0.33 0 0.67 1; 0.33 0 0.67 1; 0.33 0 0.67 1; 0.33 0 0.67 1; 0.33 0 0.67 1; 0.33 0 0.67 1; 0.33 0 0.67 1; 0.33 0 0.67 1; 0.33 0 0.67 1; 0.33 0 0.67 1; 0.33 0 0.67 1" fill="freeze" /><g transform="scale(1,1) translate(-574,-350)"><g id="i4" transform="matrix(1,0,0,1,722.986,240.238)"><path fill="#cae7e5" fill-opacity="0.5" d="M-182.875,91.486C-187.02,115.067,-172.454,137.921,-149.329,144.122C-88.487,160.437,30.106,182.019,109.733,131.27C184.067,83.895,205.922,-14.769,158.547,-89.103C111.172,-163.437,12.507,-185.292,-61.827,-137.917C-141.454,-87.168,-171.972,29.446,-182.875,91.486Z" /></g></g></g></g></g></g></g></g><g id="i2"><g transform="translate(600,536)"><animateTransform repeatCount="indefinite" type="translate" attributeName="transform" dur="2s" begin="0s" calcMode="spline" values="600 536; 600 603.445; 600 536; 600 619.445; 600 536; 600 616; 600 536" keyTimes="0; 0.158333; 0.333333; 0.5; 0.666667; 0.833333; 1" keySplines="0.33 0 0.67 1; 0.33 0 0.67 1; 0.33 0 0.67 1; 0.33 0 0.67 1; 0.33 0 0.67 1; 0.33 0 0.67 1" fill="freeze" /><g transform="scale(1,1) translate(-500,-500)"><g id="i5" transform="matrix(1,0,0,1,473.763,613.28)"><path fill="#facc43" d="M418.413,0C418.413,163.342,231.084,295.757,0,295.757C-231.082,295.757,-418.413,163.342,-418.413,0C-418.413,-163.342,-231.082,-295.757,0,-295.757C231.084,-295.757,418.413,-163.342,418.413,0Z" /></g><g id="i6" transform="matrix(1,0,0,1,462.317,613.28)"><path fill="#652a1f" d="M64.534,234.687C-3.56,166.591,-41.061,76.056,-41.061,-20.244C-41.061,-116.544,-3.56,-207.079,64.534,-275.172C70.212,-280.85,76.059,-286.296,82.04,-291.544C59.088,-294.302,35.509,-295.756,11.447,-295.756C-3.418,-295.756,-18.096,-295.199,-32.561,-294.13C-93.468,-216.169,-126.489,-120.745,-126.489,-20.244C-126.489,98.875,-80.102,210.863,4.127,295.092C4.331,295.296,4.541,295.493,4.745,295.696C6.977,295.721,9.206,295.756,11.447,295.756C51.346,295.756,89.938,291.804,126.489,284.432C104.33,270.335,83.555,253.708,64.534,234.687Z" /></g><g id="i4" transform="matrix(1,0,0,1,241.005,621.742)"><path fill="#652a1f" d="M-21.527,-243.327C-71.338,-216.34,-105.839,-168.056,-116.148,-112.351C-121.201,-85.044,-123.785,-57.074,-123.785,-28.704C-123.785,29.333,-112.974,85.704,-92.32,138.124C-75.112,181.8,-41.974,217.485,0.469,237.546C37.774,255.179,79.314,268.684,123.785,277.141C104.634,264.109,86.559,249.196,69.82,232.457C0.061,162.697,-38.357,69.949,-38.357,-28.704C-38.357,-121.476,-4.375,-209.021,57.686,-277.141C29.439,-267.93,2.894,-256.558,-21.527,-243.327Z" /></g></g></g></g><g id="i2"><g transform="translate(600,536)"><animateTransform repeatCount="indefinite" type="translate" attributeName="transform" dur="2s" begin="0s" calcMode="spline" values="600 536; 600 603.445; 600 536; 600 619.445; 600 536; 600 616; 600 536" keyTimes="0; 0.158333; 0.333333; 0.5; 0.666667; 0.833333; 1" keySplines="0.33 0 0.67 1; 0.33 0 0.67 1; 0.33 0 0.67 1; 0.33 0 0.67 1; 0.33 0 0.67 1; 0.33 0 0.67 1" fill="freeze" /><g transform="scale(1,1) translate(-500,-500)"><g id="i7"><g transform="translate(518.432,355.35)"><g transform="rotate(-10)"><animateTransform repeatCount="indefinite" type="rotate" attributeName="transform" dur="2s" begin="0s" calcMode="spline" values="-10; 3; -10; 3; -10; 3; -10; 3; -10; 3; -10; 3; -10; 3; -10; 3; -10; 3; -10; 3; -10; 3; -10; 3; -10; 3; -10; 3; -10; 3; -10; 3; -10; 3; -10; 3; -10; 3; -10; 3; -10; 3; -10; 3; -10; 3; -10; 3; -10; 3; -10; 3; -10; 3; -10; 3; -10; 3; -10; 3; -10" keyTimes="0; 0.016667; 0.033333; 0.05; 0.066667; 0.083333; 0.1; 0.116667; 0.133333; 0.15; 0.166667; 0.183333; 0.2; 0.216667; 0.233333; 0.25; 0.266667; 0.283333; 0.3; 0.316667; 0.333333; 0.35; 0.366667; 0.383333; 0.4; 0.416667; 0.433333; 0.45; 0.466667; 0.483333; 0.5; 0.516667; 0.533333; 0.55; 0.566667; 0.583333; 0.6; 0.616667; 0.633333; 0.65; 0.666667; 0.683333; 0.7; 0.716667; 0.733333; 0.75; 0.766667; 0.783333; 0.8; 0.816667; 0.833333; 0.85; 0.866667; 0.883333; 0.9; 0.916667; 0.933333; 0.95; 0.966667; 0.983333; 1" keySplines="0.33 0 0.67 1; 0.33 0 0.67 1; 0.33 0 0.67 1; 0.33 0 0.67 1; 0.33 0 0.67 1; 0.33 0 0.67 1; 0.33 0 0.67 1; 0.33 0 0.67 1; 0.33 0 0.67 1; 0.33 0 0.67 1; 0.33 0 0.67 1; 0.33 0 0.67 1; 0.33 0 0.67 1; 0.33 0 0.67 1; 0.33 0 0.67 1; 0.33 0 0.67 1; 0.33 0 0.67 1; 0.33 0 0.67 1; 0.33 0 0.67 1; 0.33 0 0.67 1; 0.33 0 0.67 1; 0.33 0 0.67 1; 0.33 0 0.67 1; 0.33 0 0.67 1; 0.33 0 0.67 1; 0.33 0 0.67 1; 0.33 0 0.67 1; 0.33 0 0.67 1; 0.33 0 0.67 1; 0.33 0 0.67 1; 0.33 0 0.67 1; 0.33 0 0.67 1; 0.33 0 0.67 1; 0.33 0 0.67 1; 0.33 0 0.67 1; 0.33 0 0.67 1; 0.33 0 0.67 1; 0.33 0 0.67 1; 0.33 0 0.67 1; 0.33 0 0.67 1; 0.33 0 0.67 1; 0.33 0 0.67 1; 0.33 0 0.67 1; 0.33 0 0.67 1; 0.33 0 0.67 1; 0.33 0 0.67 1; 0.33 0 0.67 1; 0.33 0 0.67 1; 0.33 0 0.67 1; 0.33 0 0.67 1; 0.33 0 0.67 1; 0.33 0 0.67 1; 0.33 0 0.67 1; 0.33 0 0.67 1; 0.33 0 0.67 1; 0.33 0 0.67 1; 0.33 0 0.67 1; 0.33 0 0.67 1; 0.33 0 0.67 1; 0.33 0 0.67 1" fill="freeze" /><g transform="scale(1,1) translate(-518.432,-355.35)"><g id="i4" transform="matrix(1,0,0,1,359.525,255.604)"><path fill="#cae7e5" fill-opacity="0.5" d="M185.55,78.345C191.296,101.587,178.326,125.384,155.679,133.15C96.094,153.584,-20.748,183.219,-103.656,138.029C-181.054,95.844,-209.598,-1.097,-167.413,-78.494C-125.227,-155.891,-28.286,-184.436,49.111,-142.251C132.019,-97.062,170.433,17.195,185.55,78.345Z" /></g></g></g></g></g></g></g></g><g id="i2"><g transform="translate(600,536)"><animateTransform repeatCount="indefinite" type="translate" attributeName="transform" dur="2s" begin="0s" calcMode="spline" values="600 536; 600 603.445; 600 536; 600 619.445; 600 536; 600 616; 600 536" keyTimes="0; 0.158333; 0.333333; 0.5; 0.666667; 0.833333; 1" keySplines="0.33 0 0.67 1; 0.33 0 0.67 1; 0.33 0 0.67 1; 0.33 0 0.67 1; 0.33 0 0.67 1; 0.33 0 0.67 1" fill="freeze" /><g transform="scale(1,1) translate(-500,-500)"><g id="i8"><g transform="translate(635,407)"><g transform="rotate(0)"><animateTransform repeatCount="indefinite" type="rotate" attributeName="transform" dur="2s" begin="0s" calcMode="spline" values="0; -11; 0; -5; 0; -13; 0; -8; 0; -17; 0; -8; 0" keyTimes="0; 0.083333; 0.166667; 0.25; 0.333333; 0.416667; 0.5; 0.583333; 0.666667; 0.75; 0.833333; 0.916667; 1" keySplines="0.25 0 0.75 1; 0.25 0 0.75 1; 0.25 0 0.75 1; 0.25 0 0.75 1; 0.25 0 0.75 1; 0.25 0 0.75 1; 0.25 0 0.75 1; 0.25 0 0.75 1; 0.25 0 0.75 1; 0.25 0 0.75 1; 0.25 0 0.75 1; 0.25 0 0.75 1" fill="freeze" /><g transform="scale(1,1) translate(-635,-407)"><g id="i4" transform="matrix(1,0,0,1,600.047,335.676)"><path fill="#652a1f" d="M1.562,63.625C-5.603,30.587,-23.238,-31.416,-60.273,-70.834C-66.793,-77.773,-58.927,-88.576,-50.333,-84.479C-13.842,-67.088,33.268,-30.266,59.836,47.34C66.793,67.662,50.958,88.576,29.51,87.406C29.51,87.406,29.51,87.406,29.51,87.406C15.905,86.664,4.45,76.941,1.562,63.625Z" /></g></g></g></g></g></g></g></g><g id="i2"><g transform="translate(600,536)"><animateTransform repeatCount="indefinite" type="translate" attributeName="transform" dur="2s" begin="0s" calcMode="spline" values="600 536; 600 603.445; 600 536; 600 619.445; 600 536; 600 616; 600 536" keyTimes="0; 0.158333; 0.333333; 0.5; 0.666667; 0.833333; 1" keySplines="0.33 0 0.67 1; 0.33 0 0.67 1; 0.33 0 0.67 1; 0.33 0 0.67 1; 0.33 0 0.67 1; 0.33 0 0.67 1" fill="freeze" /><g transform="scale(1,1) translate(-500,-500)"><g id="i9"><g transform="translate(722,408)"><g transform="rotate(0)"><animateTransform repeatCount="indefinite" type="rotate" attributeName="transform" dur="2s" begin="0s" calcMode="spline" values="0; -10; 0; -17; 0; -10; 0; -17; 0; -17; 6; -11; 6" keyTimes="0; 0.083333; 0.166667; 0.25; 0.333333; 0.416667; 0.5; 0.583333; 0.666667; 0.75; 0.833333; 0.916667; 1" keySplines="0.25 0 0.75 1; 0.25 0 0.75 1; 0.25 0 0.75 1; 0.25 0 0.75 1; 0.25 0 0.75 1; 0.25 0 0.75 1; 0.25 0 0.75 1; 0.25 0 0.75 1; 0.25 0 0.75 1; 0.25 0 0.75 1; 0.25 0 0.75 1; 0.25 0 0.75 1" fill="freeze" /><g transform="scale(1,1) translate(-722,-408)"><g id="i4" transform="matrix(1,0,0,1,704.701,328.985)"><path fill="#652a1f" d="M-13.813,63.257C-13.42,29.453,-16.765,-34.922,-44.066,-81.614C-48.872,-89.832,-38.792,-98.607,-31.33,-92.695C0.356,-67.596,38.056,-21.185,46.627,60.393C48.872,81.756,28.767,98.607,8.122,92.677C-4.975,88.916,-13.97,76.882,-13.813,63.257Z" /></g></g></g></g></g></g></g></g><g id="i2"><g transform="translate(600,536)"><animateTransform repeatCount="indefinite" type="translate" attributeName="transform" dur="2s" begin="0s" calcMode="spline" values="600 536; 600 603.445; 600 536; 600 619.445; 600 536; 600 616; 600 536" keyTimes="0; 0.158333; 0.333333; 0.5; 0.666667; 0.833333; 1" keySplines="0.33 0 0.67 1; 0.33 0 0.67 1; 0.33 0 0.67 1; 0.33 0 0.67 1; 0.33 0 0.67 1; 0.33 0 0.67 1" fill="freeze" /><g transform="scale(1,1) translate(-500,-500)"><g transform="matrix(1,0,0,1,0,0)" id="i10"><g><g transform="translate(589.854,543.574)"><g id="i11" transform="scale(1,0.672)"><animateTransform repeatCount="indefinite" type="scale" attributeName="transform" dur="2s" begin="0s" calcMode="spline" values="1 0.672; 1 0.2; 1 0.672; 1 0.672; 1 0.2; 1 0.672; 1 0.672; 1 0.2; 1 0.672; 1 0.672" keyTimes="0; 0.033333; 0.075; 0.383333; 0.416666; 0.458333; 0.691667; 0.725; 0.766667; 1" keySplines="0 0 1 1; 0 0 1 1; 0 0 1 1; 0 0 1 1; 0 0 1 1; 0 0 1 1; 0 0 1 1; 0 0 1 1; 0 0 1 1" fill="freeze" /><path fill="#270000" d="M32.582,0C32.582,35.111,17.994,63.574,0,63.574C-17.995,63.574,-32.582,35.111,-32.582,0C-32.582,-35.111,-17.995,-63.574,0,-63.574C17.994,-63.574,32.582,-35.111,32.582,0Z" /></g></g></g><g><g transform="translate(793.267,545.138)"><g id="i12" transform="scale(1,0.672)"><animateTransform repeatCount="indefinite" type="scale" attributeName="transform" dur="2s" begin="0s" calcMode="spline" values="1 0.672; 1 0.2; 1 0.672; 1 0.672; 1 0.2; 1 0.672; 1 0.672; 1 0.2; 1 0.672; 1 0.672" keyTimes="0; 0.033333; 0.075; 0.383333; 0.416666; 0.458333; 0.691667; 0.725; 0.766667; 1" keySplines="0 0 1 1; 0 0 1 1; 0 0 1 1; 0 0 1 1; 0 0 1 1; 0 0 1 1; 0 0 1 1; 0 0 1 1; 0 0 1 1" fill="freeze" /><path fill="#270000" d="M32.581,0C32.581,35.111,17.994,63.574,0,63.574C-17.995,63.574,-32.582,35.111,-32.582,0C-32.582,-35.11,-17.995,-63.574,0,-63.574C17.994,-63.574,32.581,-35.11,32.581,0Z" /></g></g></g><g id="i13" transform="matrix(0.892,0,0,1.12,867.343,632.17)"><ellipse ry="41.211" rx="66.686" cy="0" cx="0" fill="#f19d66" /></g><g id="i14" transform="matrix(0.892,0,0,1.12,496.069,629.395)"><ellipse ry="41.211" rx="66.686" cy="0" cx="0" fill="#f19d66" /></g><g id="i15"><path stroke-width="21" stroke="#270000" d="M638.5,586.983C638.5,586.983,693,634.983,748,585.983" /></g></g></g></g></g></g></defs><g transform="matrix(0.984,0,0,0.984,17.6,-10.4)" id="i16"><g clip-path="url(#i0)"><g><g transform="translate(600,536)"><animateTransform repeatCount="indefinite" type="translate" attributeName="transform" dur="2s" begin="0s" calcMode="spline" values="600 536; 600 603.445; 600 536; 600 619.445; 600 536; 600 616; 600 536" keyTimes="0; 0.158333; 0.333333; 0.5; 0.666667; 0.833333; 1" keySplines="0.33 0 0.67 1; 0.33 0 0.67 1; 0.33 0 0.67 1; 0.33 0 0.67 1; 0.33 0 0.67 1; 0.33 0 0.67 1" fill="freeze" /><g transform="scale(1,1) translate(-500,-500)"><g><g transform="translate(574,350)"><g transform="rotate(15)"><animateTransform repeatCount="indefinite" type="rotate" attributeName="transform" dur="2s" begin="0s" calcMode="spline" values="15; 0; 15; 0; 15; 0; 15; 0; 15; 0; 15; 0; 15; 0; 15; 0; 15; 0; 15; 0; 15; 0; 15; 0; 15; 0; 15; 0; 15; 0; 15; 0; 15; 0; 15; 0; 15; 0; 15; 0; 15; 0; 15; 0; 15; 0; 15; 0; 15; 0; 15; 0; 15; 0; 15; 0; 15; 0; 15; 0; 15" keyTimes="0; 0.016667; 0.033333; 0.05; 0.066667; 0.083333; 0.1; 0.116667; 0.133333; 0.15; 0.166667; 0.183333; 0.2; 0.216667; 0.233333; 0.25; 0.266667; 0.283333; 0.3; 0.316667; 0.333333; 0.35; 0.366667; 0.383333; 0.4; 0.416667; 0.433333; 0.45; 0.466667; 0.483333; 0.5; 0.516667; 0.533333; 0.55; 0.566667; 0.583333; 0.6; 0.616667; 0.633333; 0.65; 0.666667; 0.683333; 0.7; 0.716667; 0.733333; 0.75; 0.766667; 0.783333; 0.8; 0.816667; 0.833333; 0.85; 0.866667; 0.883333; 0.9; 0.916667; 0.933333; 0.95; 0.966667; 0.983333; 1" keySplines="0.33 0 0.67 1; 0.33 0 0.67 1; 0.33 0 0.67 1; 0.33 0 0.67 1; 0.33 0 0.67 1; 0.33 0 0.67 1; 0.33 0 0.67 1; 0.33 0 0.67 1; 0.33 0 0.67 1; 0.33 0 0.67 1; 0.33 0 0.67 1; 0.33 0 0.67 1; 0.33 0 0.67 1; 0.33 0 0.67 1; 0.33 0 0.67 1; 0.33 0 0.67 1; 0.33 0 0.67 1; 0.33 0 0.67 1; 0.33 0 0.67 1; 0.33 0 0.67 1; 0.33 0 0.67 1; 0.33 0 0.67 1; 0.33 0 0.67 1; 0.33 0 0.67 1; 0.33 0 0.67 1; 0.33 0 0.67 1; 0.33 0 0.67 1; 0.33 0 0.67 1; 0.33 0 0.67 1; 0.33 0 0.67 1; 0.33 0 0.67 1; 0.33 0 0.67 1; 0.33 0 0.67 1; 0.33 0 0.67 1; 0.33 0 0.67 1; 0.33 0 0.67 1; 0.33 0 0.67 1; 0.33 0 0.67 1; 0.33 0 0.67 1; 0.33 0 0.67 1; 0.33 0 0.67 1; 0.33 0 0.67 1; 0.33 0 0.67 1; 0.33 0 0.67 1; 0.33 0 0.67 1; 0.33 0 0.67 1; 0.33 0 0.67 1; 0.33 0 0.67 1; 0.33 0 0.67 1; 0.33 0 0.67 1; 0.33 0 0.67 1; 0.33 0 0.67 1; 0.33 0 0.67 1; 0.33 0 0.67 1; 0.33 0 0.67 1; 0.33 0 0.67 1; 0.33 0 0.67 1; 0.33 0 0.67 1; 0.33 0 0.67 1; 0.33 0 0.67 1" fill="freeze" /><g transform="scale(1,1) translate(-574,-350)"><g transform="matrix(1,0,0,1,722.986,240.238)"><path fill="#cae7e5" fill-opacity="0.5" d="M-182.875,91.486C-187.02,115.067,-172.454,137.921,-149.329,144.122C-88.487,160.437,30.106,182.019,109.733,131.27C184.067,83.895,205.922,-14.769,158.547,-89.103C111.172,-163.437,12.507,-185.292,-61.827,-137.917C-141.454,-87.168,-171.972,29.446,-182.875,91.486Z" /></g></g></g></g></g></g></g></g><g><g transform="translate(600,536)"><animateTransform repeatCount="indefinite" type="translate" attributeName="transform" dur="2s" begin="0s" calcMode="spline" values="600 536; 600 603.445; 600 536; 600 619.445; 600 536; 600 616; 600 536" keyTimes="0; 0.158333; 0.333333; 0.5; 0.666667; 0.833333; 1" keySplines="0.33 0 0.67 1; 0.33 0 0.67 1; 0.33 0 0.67 1; 0.33 0 0.67 1; 0.33 0 0.67 1; 0.33 0 0.67 1" fill="freeze" /><g transform="scale(1,1) translate(-500,-500)"><g transform="matrix(1,0,0,1,473.763,613.28)"><path fill="#facc43" d="M418.413,0C418.413,163.342,231.084,295.757,0,295.757C-231.082,295.757,-418.413,163.342,-418.413,0C-418.413,-163.342,-231.082,-295.757,0,-295.757C231.084,-295.757,418.413,-163.342,418.413,0Z" /></g><g transform="matrix(1,0,0,1,462.317,613.28)"><path fill="#652a1f" d="M64.534,234.687C-3.56,166.591,-41.061,76.056,-41.061,-20.244C-41.061,-116.544,-3.56,-207.079,64.534,-275.172C70.212,-280.85,76.059,-286.296,82.04,-291.544C59.088,-294.302,35.509,-295.756,11.447,-295.756C-3.418,-295.756,-18.096,-295.199,-32.561,-294.13C-93.468,-216.169,-126.489,-120.745,-126.489,-20.244C-126.489,98.875,-80.102,210.863,4.127,295.092C4.331,295.296,4.541,295.493,4.745,295.696C6.977,295.721,9.206,295.756,11.447,295.756C51.346,295.756,89.938,291.804,126.489,284.432C104.33,270.335,83.555,253.708,64.534,234.687Z" /></g><g transform="matrix(1,0,0,1,241.005,621.742)"><path fill="#652a1f" d="M-21.527,-243.327C-71.338,-216.34,-105.839,-168.056,-116.148,-112.351C-121.201,-85.044,-123.785,-57.074,-123.785,-28.704C-123.785,29.333,-112.974,85.704,-92.32,138.124C-75.112,181.8,-41.974,217.485,0.469,237.546C37.774,255.179,79.314,268.684,123.785,277.141C104.634,264.109,86.559,249.196,69.82,232.457C0.061,162.697,-38.357,69.949,-38.357,-28.704C-38.357,-121.476,-4.375,-209.021,57.686,-277.141C29.439,-267.93,2.894,-256.558,-21.527,-243.327Z" /></g></g></g></g><g><g transform="translate(600,536)"><animateTransform repeatCount="indefinite" type="translate" attributeName="transform" dur="2s" begin="0s" calcMode="spline" values="600 536; 600 603.445; 600 536; 600 619.445; 600 536; 600 616; 600 536" keyTimes="0; 0.158333; 0.333333; 0.5; 0.666667; 0.833333; 1" keySplines="0.33 0 0.67 1; 0.33 0 0.67 1; 0.33 0 0.67 1; 0.33 0 0.67 1; 0.33 0 0.67 1; 0.33 0 0.67 1" fill="freeze" /><g transform="scale(1,1) translate(-500,-500)"><g><g transform="translate(518.432,355.35)"><g transform="rotate(-10)"><animateTransform repeatCount="indefinite" type="rotate" attributeName="transform" dur="2s" begin="0s" calcMode="spline" values="-10; 3; -10; 3; -10; 3; -10; 3; -10; 3; -10; 3; -10; 3; -10; 3; -10; 3; -10; 3; -10; 3; -10; 3; -10; 3; -10; 3; -10; 3; -10; 3; -10; 3; -10; 3; -10; 3; -10; 3; -10; 3; -10; 3; -10; 3; -10; 3; -10; 3; -10; 3; -10; 3; -10; 3; -10; 3; -10; 3; -10" keyTimes="0; 0.016667; 0.033333; 0.05; 0.066667; 0.083333; 0.1; 0.116667; 0.133333; 0.15; 0.166667; 0.183333; 0.2; 0.216667; 0.233333; 0.25; 0.266667; 0.283333; 0.3; 0.316667; 0.333333; 0.35; 0.366667; 0.383333; 0.4; 0.416667; 0.433333; 0.45; 0.466667; 0.483333; 0.5; 0.516667; 0.533333; 0.55; 0.566667; 0.583333; 0.6; 0.616667; 0.633333; 0.65; 0.666667; 0.683333; 0.7; 0.716667; 0.733333; 0.75; 0.766667; 0.783333; 0.8; 0.816667; 0.833333; 0.85; 0.866667; 0.883333; 0.9; 0.916667; 0.933333; 0.95; 0.966667; 0.983333; 1" keySplines="0.33 0 0.67 1; 0.33 0 0.67 1; 0.33 0 0.67 1; 0.33 0 0.67 1; 0.33 0 0.67 1; 0.33 0 0.67 1; 0.33 0 0.67 1; 0.33 0 0.67 1; 0.33 0 0.67 1; 0.33 0 0.67 1; 0.33 0 0.67 1; 0.33 0 0.67 1; 0.33 0 0.67 1; 0.33 0 0.67 1; 0.33 0 0.67 1; 0.33 0 0.67 1; 0.33 0 0.67 1; 0.33 0 0.67 1; 0.33 0 0.67 1; 0.33 0 0.67 1; 0.33 0 0.67 1; 0.33 0 0.67 1; 0.33 0 0.67 1; 0.33 0 0.67 1; 0.33 0 0.67 1; 0.33 0 0.67 1; 0.33 0 0.67 1; 0.33 0 0.67 1; 0.33 0 0.67 1; 0.33 0 0.67 1; 0.33 0 0.67 1; 0.33 0 0.67 1; 0.33 0 0.67 1; 0.33 0 0.67 1; 0.33 0 0.67 1; 0.33 0 0.67 1; 0.33 0 0.67 1; 0.33 0 0.67 1; 0.33 0 0.67 1; 0.33 0 0.67 1; 0.33 0 0.67 1; 0.33 0 0.67 1; 0.33 0 0.67 1; 0.33 0 0.67 1; 0.33 0 0.67 1; 0.33 0 0.67 1; 0.33 0 0.67 1; 0.33 0 0.67 1; 0.33 0 0.67 1; 0.33 0 0.67 1; 0.33 0 0.67 1; 0.33 0 0.67 1; 0.33 0 0.67 1; 0.33 0 0.67 1; 0.33 0 0.67 1; 0.33 0 0.67 1; 0.33 0 0.67 1; 0.33 0 0.67 1; 0.33 0 0.67 1; 0.33 0 0.67 1" fill="freeze" /><g transform="scale(1,1) translate(-518.432,-355.35)"><g transform="matrix(1,0,0,1,359.525,255.604)"><path fill="#cae7e5" fill-opacity="0.5" d="M185.55,78.345C191.296,101.587,178.326,125.384,155.679,133.15C96.094,153.584,-20.748,183.219,-103.656,138.029C-181.054,95.844,-209.598,-1.097,-167.413,-78.494C-125.227,-155.891,-28.286,-184.436,49.111,-142.251C132.019,-97.062,170.433,17.195,185.55,78.345Z" /></g></g></g></g></g></g></g></g><g><g transform="translate(600,536)"><animateTransform repeatCount="indefinite" type="translate" attributeName="transform" dur="2s" begin="0s" calcMode="spline" values="600 536; 600 603.445; 600 536; 600 619.445; 600 536; 600 616; 600 536" keyTimes="0; 0.158333; 0.333333; 0.5; 0.666667; 0.833333; 1" keySplines="0.33 0 0.67 1; 0.33 0 0.67 1; 0.33 0 0.67 1; 0.33 0 0.67 1; 0.33 0 0.67 1; 0.33 0 0.67 1" fill="freeze" /><g transform="scale(1,1) translate(-500,-500)"><g><g transform="translate(635,407)"><g transform="rotate(0)"><animateTransform repeatCount="indefinite" type="rotate" attributeName="transform" dur="2s" begin="0s" calcMode="spline" values="0; -11; 0; -5; 0; -13; 0; -8; 0; -17; 0; -8; 0" keyTimes="0; 0.083333; 0.166667; 0.25; 0.333333; 0.416667; 0.5; 0.583333; 0.666667; 0.75; 0.833333; 0.916667; 1" keySplines="0.25 0 0.75 1; 0.25 0 0.75 1; 0.25 0 0.75 1; 0.25 0 0.75 1; 0.25 0 0.75 1; 0.25 0 0.75 1; 0.25 0 0.75 1; 0.25 0 0.75 1; 0.25 0 0.75 1; 0.25 0 0.75 1; 0.25 0 0.75 1; 0.25 0 0.75 1" fill="freeze" /><g transform="scale(1,1) translate(-635,-407)"><g transform="matrix(1,0,0,1,600.047,335.676)"><path fill="#652a1f" d="M1.562,63.625C-5.603,30.587,-23.238,-31.416,-60.273,-70.834C-66.793,-77.773,-58.927,-88.576,-50.333,-84.479C-13.842,-67.088,33.268,-30.266,59.836,47.34C66.793,67.662,50.958,88.576,29.51,87.406C29.51,87.406,29.51,87.406,29.51,87.406C15.905,86.664,4.45,76.941,1.562,63.625Z" /></g></g></g></g></g></g></g></g><g><g transform="translate(600,536)"><animateTransform repeatCount="indefinite" type="translate" attributeName="transform" dur="2s" begin="0s" calcMode="spline" values="600 536; 600 603.445; 600 536; 600 619.445; 600 536; 600 616; 600 536" keyTimes="0; 0.158333; 0.333333; 0.5; 0.666667; 0.833333; 1" keySplines="0.33 0 0.67 1; 0.33 0 0.67 1; 0.33 0 0.67 1; 0.33 0 0.67 1; 0.33 0 0.67 1; 0.33 0 0.67 1" fill="freeze" /><g transform="scale(1,1) translate(-500,-500)"><g><g transform="translate(722,408)"><g transform="rotate(0)"><animateTransform repeatCount="indefinite" type="rotate" attributeName="transform" dur="2s" begin="0s" calcMode="spline" values="0; -10; 0; -17; 0; -10; 0; -17; 0; -17; 6; -11; 6" keyTimes="0; 0.083333; 0.166667; 0.25; 0.333333; 0.416667; 0.5; 0.583333; 0.666667; 0.75; 0.833333; 0.916667; 1" keySplines="0.25 0 0.75 1; 0.25 0 0.75 1; 0.25 0 0.75 1; 0.25 0 0.75 1; 0.25 0 0.75 1; 0.25 0 0.75 1; 0.25 0 0.75 1; 0.25 0 0.75 1; 0.25 0 0.75 1; 0.25 0 0.75 1; 0.25 0 0.75 1; 0.25 0 0.75 1" fill="freeze" /><g transform="scale(1,1) translate(-722,-408)"><g transform="matrix(1,0,0,1,704.701,328.985)"><path fill="#652a1f" d="M-13.813,63.257C-13.42,29.453,-16.765,-34.922,-44.066,-81.614C-48.872,-89.832,-38.792,-98.607,-31.33,-92.695C0.356,-67.596,38.056,-21.185,46.627,60.393C48.872,81.756,28.767,98.607,8.122,92.677C-4.975,88.916,-13.97,76.882,-13.813,63.257Z" /></g></g></g></g></g></g></g></g><g><g transform="translate(600,536)"><animateTransform repeatCount="indefinite" type="translate" attributeName="transform" dur="2s" begin="0s" calcMode="spline" values="600 536; 600 603.445; 600 536; 600 619.445; 600 536; 600 616; 600 536" keyTimes="0; 0.158333; 0.333333; 0.5; 0.666667; 0.833333; 1" keySplines="0.33 0 0.67 1; 0.33 0 0.67 1; 0.33 0 0.67 1; 0.33 0 0.67 1; 0.33 0 0.67 1; 0.33 0 0.67 1" fill="freeze" /><g transform="scale(1,1) translate(-500,-500)"><g transform="matrix(1,0,0,1,0,0)"><g><g transform="translate(589.854,543.574)"><g transform="scale(1,0.672)"><animateTransform repeatCount="indefinite" type="scale" attributeName="transform" dur="2s" begin="0s" calcMode="spline" values="1 0.672; 1 0.2; 1 0.672; 1 0.672; 1 0.2; 1 0.672; 1 0.672; 1 0.2; 1 0.672; 1 0.672" keyTimes="0; 0.033333; 0.075; 0.383333; 0.416666; 0.458333; 0.691667; 0.725; 0.766667; 1" keySplines="0 0 1 1; 0 0 1 1; 0 0 1 1; 0 0 1 1; 0 0 1 1; 0 0 1 1; 0 0 1 1; 0 0 1 1; 0 0 1 1" fill="freeze" /><path fill="#270000" d="M32.582,0C32.582,35.111,17.994,63.574,0,63.574C-17.995,63.574,-32.582,35.111,-32.582,0C-32.582,-35.111,-17.995,-63.574,0,-63.574C17.994,-63.574,32.582,-35.111,32.582,0Z" /></g></g></g><g><g transform="translate(793.267,545.138)"><g transform="scale(1,0.672)"><animateTransform repeatCount="indefinite" type="scale" attributeName="transform" dur="2s" begin="0s" calcMode="spline" values="1 0.672; 1 0.2; 1 0.672; 1 0.672; 1 0.2; 1 0.672; 1 0.672; 1 0.2; 1 0.672; 1 0.672" keyTimes="0; 0.033333; 0.075; 0.383333; 0.416666; 0.458333; 0.691667; 0.725; 0.766667; 1" keySplines="0 0 1 1; 0 0 1 1; 0 0 1 1; 0 0 1 1; 0 0 1 1; 0 0 1 1; 0 0 1 1; 0 0 1 1; 0 0 1 1" fill="freeze" /><path fill="#270000" d="M32.581,0C32.581,35.111,17.994,63.574,0,63.574C-17.995,63.574,-32.582,35.111,-32.582,0C-32.582,-35.11,-17.995,-63.574,0,-63.574C17.994,-63.574,32.581,-35.11,32.581,0Z" /></g></g></g><g transform="matrix(0.892,0,0,1.12,867.343,632.17)"><ellipse ry="41.211" rx="66.686" cy="0" cx="0" fill="#f19d66" /></g><g transform="matrix(0.892,0,0,1.12,496.069,629.395)"><ellipse ry="41.211" rx="66.686" cy="0" cx="0" fill="#f19d66" /></g><g><path stroke-width="21" stroke="#270000" d="M638.5,586.983C638.5,586.983,693,634.983,748,585.983" /></g></g></g></g></g></g></g></svg>