<svg fill="none" height="100%" width="100%" viewBox="0 0 1000 1000" xmlns:xlink="http://www.w3.org/1999/xlink" xmlns="http://www.w3.org/2000/svg"><defs><clipPath id="i0"><rect height="1000" width="1000" y="0" x="0" /></clipPath><g id="i1"><g transform="matrix(1,0,0,1,370.67,370.669)" id="i2"><g id="i3" transform="matrix(1,0,0,1,129.331,64.791)"><path fill="#a67eff" d="M0,-64.541C-71.29,-64.541,-129.081,-6.749,-129.081,64.54C-129.081,64.54,-79.809,64.54,-79.809,64.54C-79.808,20.463,-44.077,-15.268,0,-15.268C44.077,-15.268,79.808,20.463,79.808,64.541C79.808,64.541,129.081,64.541,129.081,64.541C129.081,-6.749,71.29,-64.541,0,-64.541Z" /></g></g><g transform="matrix(1,0,0,1,324.144,324.143)" id="i4"><g id="i3" transform="matrix(1,0,0,1,175.856,88.054)"><path fill="#52dbff" d="M0,-41.278C71.29,-41.278,129.081,16.513,129.081,87.803C129.081,87.803,175.606,87.803,175.606,87.803C175.606,-9.182,96.985,-87.803,0,-87.803C-96.984,-87.803,-175.606,-9.181,-175.606,87.803C-175.606,87.803,-129.081,87.803,-129.081,87.803C-129.081,16.513,-71.289,-41.278,0,-41.278Z" /></g></g><g transform="matrix(1,0,0,1,274.738,274.738)" id="i5"><g id="i3" transform="matrix(1,0,0,1,225.261,112.756)"><path fill="#00dcab" d="M0,-112.506C-124.271,-112.506,-225.011,-11.765,-225.011,112.505C-225.011,112.505,-175.606,112.505,-175.606,112.505C-175.606,15.521,-96.985,-63.101,0,-63.101C96.985,-63.101,175.606,15.521,175.606,112.506C175.606,112.506,225.011,112.506,225.011,112.506C225.011,-11.764,124.27,-112.506,0,-112.506Z" /></g></g><g transform="matrix(1,0,0,1,224.87,224.869)" id="i6"><g id="i3" transform="matrix(1,0,0,1,275.13,137.691)"><path fill="#ffdd00" d="M0,-87.572C124.27,-87.572,225.011,13.17,225.011,137.44C225.011,137.44,274.88,137.44,274.88,137.44C274.88,-14.372,151.812,-137.44,0,-137.44C-151.812,-137.44,-274.88,-14.373,-274.88,137.439C-274.88,137.439,-225.011,137.439,-225.011,137.439C-225.011,13.169,-124.271,-87.572,0,-87.572Z" /></g></g><g transform="matrix(1,0,0,1,174.98,174.98)" id="i7"><g id="i3" transform="matrix(1,0,0,1,325.019,162.635)"><path fill="#ff8522" d="M0,-162.385C-179.365,-162.385,-324.769,-16.981,-324.769,162.384C-324.769,162.384,-274.88,162.384,-274.88,162.384C-274.879,10.572,-151.812,-112.496,0,-112.496C151.813,-112.496,274.88,10.573,274.88,162.385C274.88,162.385,324.769,162.385,324.769,162.385C324.769,-16.98,179.366,-162.385,0,-162.385Z" /></g></g><g transform="matrix(1,0,0,1,124.751,124.75)" id="i8"><g id="i3" transform="matrix(1,0,0,1,375.25,187.751)"><path fill="#fa496e" d="M0,-137.27C179.365,-137.27,324.769,8.135,324.769,187.501C324.769,187.501,375,187.501,375,187.501C375,-19.606,207.107,-187.499,0,-187.5C-207.107,-187.5,-375,-19.607,-375,187.5C-375,187.5,-324.77,187.5,-324.77,187.5C-324.77,8.135,-179.365,-137.27,0,-137.27Z" /></g></g></g><filter id="i9"><feColorMatrix values="0 0 0 0 1 0 0 0 0 1 0 0 0 0 1 0 0 0 1 0" type="matrix" /></filter><mask height="20000" width="20000" y="-10000" x="-10000" maskContentUnits="userSpaceOnUse" maskUnits="userSpaceOnUse" style="mask-type: alpha" mask-type="alpha" id="i10"><g filter="url(#i9)" transform="matrix(1,0,0,1,-0.25,303.75)"><g id="i3" transform="matrix(1,0,0,1,500.25,190.25)"><path fill="#ffffff" d="M-500,-190C-500,-190,-500,189.999,-500,189.999C-500,189.999,500,190,500,190C500,190,500,-189.999,500,-189.999C500,-189.999,-500,-190,-500,-190Z" /></g></g></mask></defs><g mask="url(#i10)" id="i11"><g transform="translate(500,684)"><g transform="rotate(-180)"><animateTransform repeatCount="indefinite" type="rotate" attributeName="transform" dur="4s" begin="0s" calcMode="spline" values="-180; 0; 0; 0; 180; 180" keyTimes="0; 0.333334; 0.783334; 0.8; 0.966667; 1" keySplines="0.333 0 0.194 1; 0.333 0 0.833 1; 0.167 0 0.833 1; 0.224 0 0.197 1; 0 0 1 1" fill="freeze" /><g id="f12"><g transform="scale(1,1) translate(-500,-500)"><g clip-path="url(#i0)"><g transform="matrix(1,0,0,1,370.67,370.669)"><g transform="matrix(1,0,0,1,129.331,64.791)"><path fill="#a67eff" d="M0,-64.541C-71.29,-64.541,-129.081,-6.749,-129.081,64.54C-129.081,64.54,-79.809,64.54,-79.809,64.54C-79.808,20.463,-44.077,-15.268,0,-15.268C44.077,-15.268,79.808,20.463,79.808,64.541C79.808,64.541,129.081,64.541,129.081,64.541C129.081,-6.749,71.29,-64.541,0,-64.541Z" /></g></g><g transform="matrix(1,0,0,1,324.144,324.143)"><g transform="matrix(1,0,0,1,175.856,88.054)"><path fill="#52dbff" d="M0,-41.278C71.29,-41.278,129.081,16.513,129.081,87.803C129.081,87.803,175.606,87.803,175.606,87.803C175.606,-9.182,96.985,-87.803,0,-87.803C-96.984,-87.803,-175.606,-9.181,-175.606,87.803C-175.606,87.803,-129.081,87.803,-129.081,87.803C-129.081,16.513,-71.289,-41.278,0,-41.278Z" /></g></g><g transform="matrix(1,0,0,1,274.738,274.738)"><g transform="matrix(1,0,0,1,225.261,112.756)"><path fill="#00dcab" d="M0,-112.506C-124.271,-112.506,-225.011,-11.765,-225.011,112.505C-225.011,112.505,-175.606,112.505,-175.606,112.505C-175.606,15.521,-96.985,-63.101,0,-63.101C96.985,-63.101,175.606,15.521,175.606,112.506C175.606,112.506,225.011,112.506,225.011,112.506C225.011,-11.764,124.27,-112.506,0,-112.506Z" /></g></g><g transform="matrix(1,0,0,1,224.87,224.869)"><g transform="matrix(1,0,0,1,275.13,137.691)"><path fill="#ffdd00" d="M0,-87.572C124.27,-87.572,225.011,13.17,225.011,137.44C225.011,137.44,274.88,137.44,274.88,137.44C274.88,-14.372,151.812,-137.44,0,-137.44C-151.812,-137.44,-274.88,-14.373,-274.88,137.439C-274.88,137.439,-225.011,137.439,-225.011,137.439C-225.011,13.169,-124.271,-87.572,0,-87.572Z" /></g></g><g transform="matrix(1,0,0,1,174.98,174.98)"><g transform="matrix(1,0,0,1,325.019,162.635)"><path fill="#ff8522" d="M0,-162.385C-179.365,-162.385,-324.769,-16.981,-324.769,162.384C-324.769,162.384,-274.88,162.384,-274.88,162.384C-274.879,10.572,-151.812,-112.496,0,-112.496C151.813,-112.496,274.88,10.573,274.88,162.385C274.88,162.385,324.769,162.385,324.769,162.385C324.769,-16.98,179.366,-162.385,0,-162.385Z" /></g></g><g transform="matrix(1,0,0,1,124.751,124.75)"><g transform="matrix(1,0,0,1,375.25,187.751)"><path fill="#fa496e" d="M0,-137.27C179.365,-137.27,324.769,8.135,324.769,187.501C324.769,187.501,375,187.501,375,187.501C375,-19.606,207.107,-187.499,0,-187.5C-207.107,-187.5,-375,-19.607,-375,187.5C-375,187.5,-324.77,187.5,-324.77,187.5C-324.77,8.135,-179.365,-137.27,0,-137.27Z" /></g></g></g></g></g></g></g></g><g display="none" transform="matrix(1,0,0,1,-0.25,303.75)" id="i13"><g id="i3" transform="matrix(1,0,0,1,500.25,190.25)"><path fill="#ffffff" d="M-500,-190C-500,-190,-500,189.999,-500,189.999C-500,189.999,500,190,500,190C500,190,500,-189.999,500,-189.999C500,-189.999,-500,-190,-500,-190Z" /></g></g></svg>